<?xml version="1.0" encoding="UTF-8"?><svg id="a" xmlns="http://www.w3.org/2000/svg" viewBox="0 0 512 512"><defs><style>.b{fill:#1d1d1b;}.c{fill:#fff;}.d{fill:#e40d7e;}</style></defs><rect class="b" width="512" height="512"/><path class="d" d="M217.41,392.32l-29.92-29.92,128.4-128.4c16.02-16.02,16.02-33.93,2.59-47.35-14.61-14.61-31.1-13.19-47.12,2.83l-78.69,78.69c-32.28,32.28-72.8,31.81-101.07,3.53-27.56-27.56-29.45-66.67,4.71-100.84l122.98-122.98,29.92,29.92-122.98,122.98c-13.66,13.66-13.66,29.68-.71,42.64,12.96,12.96,28.98,12.49,42.17-.71l78.45-78.45c34.63-34.63,69.5-36.99,102.72-3.77,28.74,28.74,32.75,67.62-3.06,103.43l-128.4,128.4Z"/><path class="c" d="M289.23,392.32l-29.92-29.92,128.4-128.4c16.02-16.02,16.02-33.93,2.59-47.35-14.61-14.61-31.1-13.19-47.12,2.83l-78.69,78.69c-32.28,32.28-72.8,31.81-101.07,3.53-27.56-27.56-29.45-66.67,4.71-100.84l122.98-122.98,29.92,29.92-122.98,122.98c-13.66,13.66-13.66,29.68-.71,42.64,12.96,12.96,28.98,12.49,42.17-.71l78.45-78.45c34.63-34.63,69.5-36.99,102.72-3.77,28.74,28.74,32.75,67.62-3.06,103.43l-128.4,128.4Z"/><path class="d" d="M271.36,189.47l-78.69,78.69c-32.28,32.28-72.8,31.81-101.07,3.53-27.56-27.56-29.45-66.67,4.71-100.84l122.98-122.98,29.92,29.92-122.98,122.98c-13.66,13.66-13.66,29.68-.71,42.64,12.96,12.96,28.98,12.49,42.17-.71l78.45-78.45"/><path class="b" d="M407.6,433.14c13-20.16,20-44.43,20-70.25,0-33.73-11.9-64.18-33.51-85.75-21.56-21.52-51.97-33.37-85.61-33.37h-49.28c-32.94,0-62.91,11.72-84.41,33-10.88,10.77-19.32,23.76-25.06,38.28v-71.28h-75.36v242.42h75.36v-74.86c17.35,44.83,58.71,74.86,109.47,74.86h49.28c15.49,0,30.77-2.89,44.87-8.43l9.8,8.43h113l-68.55-53.04Z"/><path class="c" d="M94.37,466.18v-202.42h35.36v202.42h-35.36Z"/><path class="c" d="M370.57,466.18l-13.92-11.97c-13.92,7.52-30.35,11.97-48.17,11.97h-49.28c-56.52,0-98.29-44.55-98.29-103.3s41.76-99.12,98.29-99.12h49.28c58.47,0,99.12,40.37,99.12,99.12,0,29.51-10.58,55.41-28.12,73.78l38.14,29.51h-47.05ZM267.55,382.65h46.78l37.59,31.74c12.53-11.97,20.33-29.51,20.33-49.84,0-38.14-26.45-65.43-63.76-65.43h-49.28c-36.2,0-62.93,27.01-62.93,65.43s26.45,66.27,62.93,66.27h49.28c6.12,0,11.97-.83,17.54-2.23l-58.47-45.94Z"/></svg>