<?xml version="1.0" encoding="UTF-8"?><svg id="a" xmlns="http://www.w3.org/2000/svg" viewBox="0 0 1086.77 289.98"><defs><style>.b{fill:#fff;}.c{fill:#e40d7e;}</style></defs><path class="c" d="M123.43,289.98l-25.19-25.19,108.1-108.1c13.49-13.49,13.49-28.56,2.18-39.87-12.3-12.3-26.18-11.11-39.67,2.38l-66.25,66.25c-27.17,27.17-61.29,26.78-85.09,2.98-23.21-23.21-24.79-56.13,3.97-84.89L125.02,0l25.19,25.19-103.54,103.54c-11.5,11.5-11.5,24.99-.59,35.9s24.4,10.51,35.5-.6l66.05-66.05c29.16-29.16,58.51-31.14,86.48-3.17,24.2,24.2,27.57,56.93-2.58,87.07l-108.1,108.1Z"/><path class="b" d="M183.9,289.98l-25.19-25.19,108.1-108.1c13.49-13.49,13.49-28.56,2.18-39.87-12.3-12.3-26.18-11.11-39.67,2.38l-66.25,66.25c-27.17,27.17-61.29,26.78-85.09,2.98-23.21-23.21-24.79-56.13,3.97-84.89L185.49,0l25.19,25.19-103.54,103.54c-11.5,11.5-11.5,24.99-.59,35.9s24.4,10.51,35.5-.6l66.05-66.05c29.16-29.16,58.51-31.14,86.48-3.17,24.2,24.2,27.57,56.93-2.58,87.07l-108.1,108.1Z"/><path class="c" d="M168.85,119.21l-66.25,66.25c-27.17,27.17-61.29,26.78-85.09,2.98-23.21-23.21-24.79-56.13,3.97-84.89L125.02,0l25.19,25.19-103.54,103.54c-11.5,11.5-11.5,24.99-.59,35.9s24.4,10.51,35.5-.6l66.05-66.05"/><path class="b" d="M346.66,167.58v-15.28h65.56c8.18,0,12.75-4.57,12.75-11.43,0-7.46-4.57-11.31-12.75-11.31h-40.18c-16.48,0-26.71-10.47-26.71-24.9s9.5-24.54,26.95-24.54h62.8v15.28h-62.8c-6.98,0-11.07,4.09-11.07,10.71s4.21,10.59,10.95,10.59h40.06c17.68,0,27.19,8.3,27.19,25.26,0,14.68-8.9,25.62-27.19,25.62h-65.56Z"/><path class="b" d="M453.37,167.58v-87.46h15.28v87.46h-15.28Z"/><path class="b" d="M524.59,167.58c-24.42,0-42.47-19.25-42.47-44.63s18.04-42.83,42.47-42.83h47.4v15.28h-47.4c-15.64,0-27.19,11.67-27.19,28.27s11.43,28.63,27.19,28.63h37.41v-22.74h-39.46v-12.87h54.86v50.89h-52.81Z"/><path class="b" d="M605.67,103.58v64h-14.56v-79.4c0-5.65,3.01-9.14,7.82-9.14,2.29,0,4.21.84,6.5,3.13l61.71,61.23v-64h14.56v80.12c0,5.77-3.13,9.14-7.58,9.14-2.53,0-4.81-1.08-6.98-3.25l-61.47-61.83Z"/><path class="b" d="M696.5,167.58v-15.28h65.56c8.18,0,12.75-4.57,12.75-11.43,0-7.46-4.57-11.31-12.75-11.31h-40.18c-16.48,0-26.71-10.47-26.71-24.9s9.5-24.54,26.95-24.54h62.8v15.28h-62.8c-6.98,0-11.07,4.09-11.07,10.71s4.21,10.59,10.95,10.59h40.06c17.68,0,27.19,8.3,27.19,25.26,0,14.68-8.9,25.62-27.19,25.62h-65.56Z"/><path class="b" d="M802.37,167.58v-87.46h78.07v15.28h-62.92v56.9h63.04v15.28h-78.19ZM828.72,129.57v-12.87h48.48v12.87h-48.48Z"/><path class="b" d="M984.87,167.58l-13.11-22.02h-41.38l7.22-12.39h26.83l-19.49-32.72-39.7,67.13h-17.44l50.29-83.73c1.8-3.01,4.09-4.93,7.46-4.93s5.53,1.92,7.34,4.93l50.41,83.73h-18.41Z"/><path class="b" d="M1012.66,167.58v-87.46h15.28v72.18h58.83v15.28h-74.11Z"/><path class="b" d="M697.14,207.43l.84-1.38c1.74,1.82,4.98,3.2,8.39,3.2,5.09,0,7.34-2.22,7.34-4.98,0-7.63-15.88-3.05-15.88-12.43,0-3.6,2.76-6.76,9.01-6.76,2.8,0,5.71.87,7.67,2.29l-.69,1.49c-2.11-1.45-4.69-2.14-6.98-2.14-4.94,0-7.16,2.29-7.16,5.09,0,7.63,15.88,3.12,15.88,12.35,0,3.6-2.87,6.72-9.16,6.72-3.78,0-7.41-1.42-9.27-3.45Z"/><path class="b" d="M726.94,185.26h1.85v25.43h-1.85v-25.43Z"/><path class="b" d="M760.91,198.09h1.78v9.52c-2.29,2.18-5.6,3.27-9.08,3.27-7.67,0-13.3-5.49-13.3-12.9s5.63-12.9,13.34-12.9c3.67,0,6.9,1.16,9.16,3.49l-1.16,1.24c-2.22-2.18-4.87-3.02-7.96-3.02-6.61,0-11.52,4.8-11.52,11.19s4.91,11.19,11.52,11.19c2.69,0,5.16-.65,7.23-2.33v-8.76Z"/><path class="b" d="M796.64,185.26v25.43h-1.53l-17.33-22.09v22.09h-1.85v-25.43h1.56l17.3,22.09v-22.09h1.85Z"/><path class="b" d="M808.01,207.43l.84-1.38c1.74,1.82,4.98,3.2,8.39,3.2,5.09,0,7.34-2.22,7.34-4.98,0-7.63-15.88-3.05-15.88-12.43,0-3.6,2.76-6.76,9.01-6.76,2.8,0,5.71.87,7.67,2.29l-.69,1.49c-2.11-1.45-4.69-2.14-6.98-2.14-4.94,0-7.16,2.29-7.16,5.09,0,7.63,15.88,3.12,15.88,12.35,0,3.6-2.87,6.72-9.16,6.72-3.78,0-7.41-1.42-9.27-3.45Z"/><path class="b" d="M870.11,211.06l-3.67-3.85c-2.07,2.43-4.98,3.67-8.47,3.67-4.83,0-8.28-2.58-8.28-6.36,0-2.94,1.74-5.16,6.58-7.99l-.04-.07c-2.58-2.69-3.27-4.18-3.27-6.14,0-3.12,2.33-5.2,6.03-5.2,3.42,0,5.6,1.82,5.6,4.83,0,2.51-1.49,4.25-5.81,6.79l7.52,7.96c.8-1.42,1.42-3.12,1.82-5.16l1.49.47c-.47,2.33-1.2,4.29-2.18,5.85l3.78,4-1.09,1.2ZM865.35,206.04l-8.03-8.47c-4.51,2.65-5.85,4.36-5.85,6.79,0,2.98,2.69,4.98,6.58,4.98,3.02,0,5.52-1.09,7.3-3.31ZM857.72,195.65c4-2.33,5.27-3.67,5.27-5.67s-1.42-3.45-4-3.45c-2.72,0-4.32,1.53-4.32,3.78,0,1.6.62,2.76,3.05,5.34Z"/><path class="b" d="M895.55,185.26h10.06c8.07,0,13.52,5.3,13.52,12.72s-5.45,12.72-13.52,12.72h-10.06v-25.43ZM905.47,209.02c7.19,0,11.81-4.58,11.81-11.05s-4.61-11.05-11.81-11.05h-8.07v22.09h8.07Z"/><path class="b" d="M948.21,209.02v1.67h-17.55v-25.43h17v1.67h-15.15v10.03h13.55v1.63h-13.55v10.43h15.7Z"/><path class="b" d="M957.48,207.43l.84-1.38c1.74,1.82,4.98,3.2,8.39,3.2,5.09,0,7.34-2.22,7.34-4.98,0-7.63-15.88-3.05-15.88-12.43,0-3.6,2.76-6.76,9.01-6.76,2.8,0,5.71.87,7.67,2.29l-.69,1.49c-2.11-1.45-4.69-2.14-6.98-2.14-4.94,0-7.16,2.29-7.16,5.09,0,7.63,15.88,3.12,15.88,12.35,0,3.6-2.87,6.72-9.16,6.72-3.78,0-7.41-1.42-9.27-3.45Z"/><path class="b" d="M987.27,185.26h1.85v25.43h-1.85v-25.43Z"/><path class="b" d="M1021.25,198.09h1.78v9.52c-2.29,2.18-5.6,3.27-9.08,3.27-7.67,0-13.3-5.49-13.3-12.9s5.63-12.9,13.34-12.9c3.67,0,6.9,1.16,9.16,3.49l-1.16,1.24c-2.22-2.18-4.87-3.02-7.96-3.02-6.61,0-11.52,4.8-11.52,11.19s4.91,11.19,11.52,11.19c2.69,0,5.16-.65,7.23-2.33v-8.76Z"/><path class="b" d="M1056.97,185.26v25.43h-1.53l-17.33-22.09v22.09h-1.85v-25.43h1.56l17.3,22.09v-22.09h1.85Z"/><path class="b" d="M1068.35,207.43l.84-1.38c1.74,1.82,4.98,3.2,8.39,3.2,5.09,0,7.34-2.22,7.34-4.98,0-7.63-15.88-3.05-15.88-12.43,0-3.6,2.76-6.76,9.01-6.76,2.8,0,5.71.87,7.67,2.29l-.69,1.49c-2.11-1.45-4.69-2.14-6.98-2.14-4.94,0-7.16,2.29-7.16,5.09,0,7.63,15.88,3.12,15.88,12.35,0,3.6-2.87,6.72-9.16,6.72-3.78,0-7.41-1.42-9.27-3.45Z"/><rect class="c" x="345.34" y="184.31" width="336.37" height="26.74"/></svg>